# xmcd
#
# Track frame offsets: 
#        150
#        17258
#        32509
#        49209
#        69972
#        87767
#        105482
#        124147
#        143733
#        162341
#        182266
#        199238
#        219188
#        237003
#
# Disc length: 3431 seconds
#
# Revision: 0
# Processed by: cddbd v1.5.2PL0 Copyright (c) Steve Scherf et al.
# Submitted via: ExactAudioCopy v1.0b1
#
DISCID=a80d650e
DTITLE=J.D. Danner - Maybe It's Just Me...
DYEAR=2005
DGENRE=Country
TTITLE0=My Last Reason
TTITLE1=Almost Home
TTITLE2=Maybe It's Just Me
TTITLE3=The Reason I Breathe
TTITLE4=I Just Wanna Kiss You
TTITLE5=You Love Me Anyway
TTITLE6=Shelter From The Shame
TTITLE7=If Only For A Day
TTITLE8=End Of An Age
TTITLE9=A Brand New Angel
TTITLE10=Take The Time To Dance
TTITLE11=I Will Be With You
TTITLE12=No Ordinary Hero
TTITLE13=The Reason I Breathe (Operation Homefront Mix) (Bonus Track)
EXTD=
EXTT0=
EXTT1=
EXTT2=
EXTT3=
EXTT4=
EXTT5=
EXTT6=
EXTT7=
EXTT8=
EXTT9=
EXTT10=
EXTT11=
EXTT12=
EXTT13=
PLAYORDER=
